<svg id="Layer_1" data-name="Layer 1" xmlns="http://www.w3.org/2000/svg" viewBox="0 0 631.47 307.48"><defs><style>.cls-1{fill:#f5c44f;}.cls-2{fill:#333;}</style></defs><title>Artboard 1</title><path class="cls-1" d="M175.29,99.26a8.17,8.17,0,0,1-8.17,8.16h0a8.17,8.17,0,0,1-8.17-8.16h0a8.17,8.17,0,0,1,8.17-8.16h0a8.16,8.16,0,0,1,8.17,8.16Z"/><path class="cls-2" d="M109.2,100.86H95.38L66,30H81l21.27,54.94L123.61,30h14.92Z"/><path class="cls-2" d="M173.66,30.09v52H160.45v-52Z"/><path class="cls-2" d="M217.47,42.08H195.09V30h58.07v12.1H230.78v58.47H217.47Z"/><path class="cls-2" d="M326.58,100.56H273.76V30h52.83v12.9H287V59.12h38.21v12.4H287V87.45h39.62Z"/><path class="cls-2" d="M398.18,29.89h13.3v70.67h-8.27v.1L366.12,53v47.58H352.81V30H363.6l34.58,43.75Z"/><path class="cls-2" d="M21.68,194.88V124.42H72.39v12.8H35v19.25H70.37v12.3H35v26.11Z"/><path class="cls-2" d="M95.66,194.88V124.31h13.21v70.56Z"/><path class="cls-2" d="M149.27,124.31v58.27h36.29v12.3H136V124.31Z"/><path class="cls-2" d="M268.15,143.77l-23,30.65h-2.62l-22.48-30.75V195H206.76V124.42h15.32l22.08,30.34,22.08-30.34h15.22V195H268.15Z"/><path class="cls-2" d="M60.72,288.87V218.4h50.71v12.8H74v19.25h35.38v12.3H74v26.11Z"/><path class="cls-2" d="M187.2,288.87H134.38V218.3H187.2v12.9H147.58v16.23h38.21v12.4H147.58v15.93H187.2Z"/><path class="cls-2" d="M254.9,235.34c-2.42-4-9.07-7.86-16.73-7.86-9.88,0-14.62,4.13-14.62,9.38,0,6.15,7.26,7.86,15.73,8.87,14.72,1.81,28.43,5.64,28.43,22.48,0,15.72-13.91,22.48-29.64,22.48-14.42,0-25.5-4.44-30.75-17.34l11.09-5.75c3.12,7.76,11.29,11.19,19.86,11.19,8.37,0,16.23-2.92,16.23-10.58,0-6.65-7-9.37-16.33-10.38-14.42-1.71-27.72-5.54-27.72-21.37,0-14.52,14.31-20.46,27.32-20.56,11,0,22.38,3.13,27.72,14Z"/><path class="cls-2" d="M301.26,230.4H278.88V218.3h58.06v12.1H314.57v58.47H301.26Z"/><path class="cls-2" d="M357.61,288.87V218.3h13.21v70.56Z"/><path class="cls-2" d="M434.23,289.17H420.42L391.08,218.3H406l21.27,54.94,21.37-54.94h14.92Z"/><path class="cls-2" d="M526.91,275.56H490l-6,13.31H469.56l31.65-70.56h14.52l31.65,70.56H532.86Zm-18.45-42.44-13.11,30h26.21Z"/><path class="cls-2" d="M580,218.3v58.27h36.29v12.3h-49.6V218.3Z"/></svg>