<?xml version="1.0" encoding="utf-8"?>
<!-- Generator: Adobe Illustrator 21.0.2, SVG Export Plug-In . SVG Version: 6.00 Build 0)  -->
<svg version="1.1" id="Layer_1" xmlns="http://www.w3.org/2000/svg" xmlns:xlink="http://www.w3.org/1999/xlink" x="0px" y="0px"
	 viewBox="0 0 594.6 260.8" style="enable-background:new 0 0 594.6 260.8;" xml:space="preserve">
<style type="text/css">
	.st0{opacity:0.9;fill:#F6CB62;}
	.st1{opacity:0.6;fill:#FBA297;}
	.st2{opacity:0.6;fill:#44C7AA;}
	.st3{fill:#333333;}
</style>
<title>Asset 1</title>
<g id="Layer_2">
	<g id="Layer_1-2">
		<path class="st0" d="M156.8,68.4c0,6.7-5.4,12.1-12.1,12.1l0,0c-6.7,0-12.1-5.4-12.1-12.1l0,0c0-6.7,5.4-12.1,12.1-12.1l0,0
			C151.4,56.3,156.8,61.7,156.8,68.4C156.8,68.4,156.8,68.4,156.8,68.4z"/>
		<path class="st1" d="M171.6,68.4c0,6.7-5.4,12.1-12.1,12.1l0,0c-6.7,0-12.1-5.4-12.1-12.1l0,0c0-6.7,5.4-12.1,12.1-12.1l0,0
			C166.2,56.3,171.6,61.7,171.6,68.4C171.6,68.4,171.6,68.4,171.6,68.4z"/>
		<path class="st2" d="M142,68.4c0,6.7-5.4,12.1-12.1,12.1l0,0c-6.7,0-12.1-5.4-12.1-12.1l0,0c0-6.7,5.4-12.1,12.1-12.1l0,0
			C136.5,56.3,141.9,61.7,142,68.4C142,68.4,142,68.4,142,68.4z"/>
		<path class="st3" d="M87.5,71H73.7L44.4,0.1h14.9L80.6,55l21.4-54.9h14.9L87.5,71z"/>
		<path class="st3" d="M151.3,0.2v52H138v-52H151.3z"/>
		<path class="st3" d="M195.8,12.2h-22.4V0.1h58.1v12.1h-22.4v58.5h-13.3V12.2z"/>
		<path class="st3" d="M304.9,70.7h-52.8V0.1h52.8V13h-39.6v16.2h38.2v12.4h-38.2v15.9h39.6V70.7z"/>
		<path class="st3" d="M376.5,0h13.3v70.7h-8.3v0.1l-37.1-47.7v47.6h-13.3V0.1h10.8l34.6,43.8V0z"/>
		<path class="st3" d="M0,165V94.5h50.7v12.8H13.3v19.2h35.4v12.3H13.3V165H0z"/>
		<path class="st3" d="M74,165V94.4h13.2V165H74z"/>
		<path class="st3" d="M127.6,94.4v58.3h36.3V165h-49.6V94.4H127.6z"/>
		<path class="st3" d="M246.5,113.9l-23,30.7h-2.6l-22.5-30.8v51.3h-13.3V94.5h15.3l22.1,30.3l22.1-30.3h15.2v70.6h-13.3V113.9z"/>
		<path class="st3" d="M39,259v-70.5h50.8v12.8H52.3v19.2h35.4v12.3H52.3V259H39z"/>
		<path class="st3" d="M165.5,259h-52.8v-70.6h52.8v12.9h-39.6v16.2h38.2v12.4h-38.2v15.9h39.6V259z"/>
		<path class="st3" d="M233.2,205.4c-2.4-4-9.1-7.9-16.7-7.9c-9.9,0-14.6,4.1-14.6,9.4c0,6.1,7.3,7.9,15.7,8.9
			c14.7,1.8,28.4,5.6,28.4,22.5c0,15.7-13.9,22.5-29.6,22.5c-14.4,0-25.5-4.4-30.8-17.3l11.1-5.8c3.1,7.8,11.3,11.2,19.9,11.2
			c8.4,0,16.2-2.9,16.2-10.6c0-6.6-7-9.4-16.3-10.4c-14.4-1.7-27.7-5.5-27.7-21.4c0-14.5,14.3-20.5,27.3-20.6c11,0,22.4,3.1,27.7,14
			L233.2,205.4z"/>
		<path class="st3" d="M279.6,200.5h-22.4v-12.1h58.1v12.1h-22.4V259h-13.3V200.5z"/>
		<path class="st3" d="M335.9,259v-70.6h13.2V259H335.9z"/>
		<path class="st3" d="M412.5,259.3h-13.8l-29.3-70.9h14.9l21.3,54.9l21.4-54.9h14.9L412.5,259.3z"/>
		<path class="st3" d="M505.2,245.7h-36.9l-6,13.3h-14.5l31.6-70.6H494l31.7,70.6h-14.5L505.2,245.7z M486.8,203.2l-13.1,30h26.2
			L486.8,203.2z"/>
		<path class="st3" d="M558.3,188.4v58.3h36.3V259H545v-70.6H558.3z"/>
	</g>
</g>
</svg>
